<svg xmlns="http://www.w3.org/2000/svg" width="1165.829" height="457.392" version="1.1" viewBox="0 0 1092.965 428.805"><defs><marker id="b" orient="auto" overflow="visible" refX="0" refY="0"><path fill-rule="evenodd" stroke="#000" stroke-width="1pt" d="m0 0 5-5-17.5 5 17.5 5-5-5z" transform="matrix(-.8 0 0 -.8 -10 0)"/></marker><marker id="f" orient="auto" overflow="visible" refX="0" refY="0"><path fill-rule="evenodd" stroke="#000" stroke-width="1pt" d="m0 0 5-5-17.5 5 17.5 5-5-5z" transform="matrix(-.8 0 0 -.8 -10 0)"/></marker><marker id="d" orient="auto" overflow="visible" refX="0" refY="0"><path fill-rule="evenodd" stroke="#000" stroke-width="1pt" d="m0 0 5-5-17.5 5 17.5 5-5-5z" transform="matrix(-.8 0 0 -.8 -10 0)"/></marker><marker id="c" orient="auto" overflow="visible" refX="0" refY="0"><path fill-rule="evenodd" stroke="#000" stroke-width="1pt" d="m0 0 5-5-17.5 5 17.5 5-5-5z" transform="matrix(-.8 0 0 -.8 -10 0)"/></marker><marker id="e" orient="auto" overflow="visible" refX="0" refY="0"><path fill-rule="evenodd" stroke="#000" stroke-width="1pt" d="m0 0 5-5-17.5 5 17.5 5-5-5z" transform="matrix(-.8 0 0 -.8 -10 0)"/></marker><marker id="a" orient="auto" overflow="visible" refX="0" refY="0"><path fill-rule="evenodd" stroke="#000" stroke-width="1pt" d="m0 0 5-5-17.5 5 17.5 5-5-5z" transform="matrix(-.8 0 0 -.8 -10 0)"/></marker></defs><g><g transform="translate(134.84529,-50.806033) translate(-1.1785049,2.8553925)"><rect width="218.175" height="83.857" x="19.202" y="240.193" fill="#0ff" stroke="#000" stroke-linejoin="round" stroke-width="1.008"/><text style="word-spacing:0;letter-spacing:0" x="38.72" y="266.464" fill="#000" font-family="sans-serif" font-size="12.5" line-height="125%" xml:space="preserve"><tspan x="38.72" y="266.464">Mid-tier Cache Group &quot;West&quot;</tspan></text></g><g transform="translate(134.84529,-50.806033) translate(123.89427,4.3945192e-8)"><rect width="218.175" height="83.857" x="463.182" y="243.048" fill="#0ff" stroke="#000" stroke-linejoin="round" stroke-width="1.008"/><text style="word-spacing:0;letter-spacing:0" x="484.568" y="266.464" fill="#000" font-family="sans-serif" font-size="12.5" line-height="125%" xml:space="preserve"><tspan x="484.568" y="266.464">Mid-tier Cache Group &quot;East&quot;</tspan></text></g><g transform="translate(134.84529,-50.806033)"><rect width="238.333" height="83.811" x="-134.319" y="395.274" fill="#0f0" stroke="#000" stroke-linejoin="round" stroke-width="1.053"/><text style="word-spacing:0;letter-spacing:0" x="-126.157" y="417.986" fill="#000" font-family="sans-serif" font-size="12.5" line-height="125%" xml:space="preserve"><tspan x="-126.157" y="417.986">Edge-tier Cache Group &quot;Northwest&quot;</tspan></text></g><g transform="translate(134.84529,-50.806033) translate(281.82241,-108.08633)"><rect width="238.333" height="83.811" x="-131.615" y="503.36" fill="#0f0" stroke="#000" stroke-linejoin="round" stroke-width="1.053"/><text style="word-spacing:0;letter-spacing:0" x="-124.137" y="526.073" fill="#000" font-family="sans-serif" font-size="12.5" line-height="125%" xml:space="preserve"><tspan x="-124.137" y="526.073">Edge-tier Cache Group &quot;Southwest&quot;</tspan></text></g><g transform="translate(134.84529,-50.806033) translate(361.63461,-118.1879)"><rect width="238.333" height="83.811" x="357.626" y="513.462" fill="#0f0" stroke="#000" stroke-linejoin="round" stroke-width="1.053"/><text style="word-spacing:0;letter-spacing:0" x="367.069" y="536.174" fill="#000" font-family="sans-serif" font-size="12.5" line-height="125%" xml:space="preserve"><tspan x="367.069" y="536.174">Edge-tier Cache Group &quot;Northeast&quot;</tspan></text></g><g transform="translate(134.84529,-50.806033) translate(750.88007,-49.497498)"><rect width="238.333" height="83.811" x="-316.146" y="444.771" fill="#0f0" stroke="#000" stroke-linejoin="round" stroke-width="1.053"/><text style="word-spacing:0;letter-spacing:0" x="-307.386" y="467.484" fill="#000" font-family="sans-serif" font-size="12.5" line-height="125%" xml:space="preserve"><tspan x="-307.386" y="467.484">Edge-tier Cache Group &quot;Southeast&quot;</tspan></text></g><g transform="translate(134.84529,-50.806033) translate(82.810028)"><rect width="179.807" height="61.619" x="238.924" y="51.301" fill="#f55" stroke="#000" stroke-linejoin="round" stroke-width=".99"/><text style="word-spacing:0;letter-spacing:0" x="310.117" y="72.514" fill="#000" font-family="sans-serif" font-size="12.5" line-height="125%" xml:space="preserve"><tspan x="310.117" y="72.514">Origin</tspan></text></g><g fill="none" stroke="#000" stroke-width="1"><path marker-end="url(#f)" d="m-19.285714 395.21935 116.817643-67.4447" transform="translate(134.84529,-50.806033)"/><path marker-end="url(#d)" d="m273.21478 395.60877-116.81764-67.4447" transform="translate(134.84529,-50.806033)"/><path marker-end="url(#e)" d="m550.03547 394.7431 116.81764-67.4447" transform="translate(134.84529,-50.806033)"/><path marker-end="url(#c)" d="m842.53596 395.13252-116.81764-67.4447" transform="translate(134.84529,-50.806033)"/><path marker-end="url(#b)" d="m125.35714 242.71935 223.54772-129.06534" transform="translate(134.84529,-50.806033)"/><path marker-end="url(#a)" d="m697.57981 242.71934-223.54772-129.06533" transform="translate(134.84529,-50.806033)"/></g></g></svg>