<svg xmlns="http://www.w3.org/2000/svg" version="1.1" viewBox="0 0 789 789"><title>Apache Traffic Control Logo</title><desc>Logo with no text</desc><g fill="#f49224" transform="translate(-260,-37)"><path d="m933.48337 152.57612-56.57065 56.57064c-56.83481-56.34409-135.05947-91.14676-221.41272-91.14676-173.69355 0-314.5 140.80645-314.5 314.5s140.80645 314.5 314.5 314.5c87.08597 0 165.90482-35.39579 222.85484-92.58567l55.56865 55.56864c-71.42727 71.66699-170.24613 116.01703-279.42349 116.01703-217.87633 0-394.5-176.62367-394.5-394.5s176.62367-394.5 394.5-394.5c108.9533 0 207.59056 44.168182 278.98337 115.57612z"/><path d="m416.60182 396h87.60049c-2.74774 11.55266-4.20231 23.60647-4.20231 36 0 85.60414 69.39586 155 155 155s155-69.39586 155-155-69.39586-155-155-155c-12.03638 0-23.75233 1.37194-35 3.96798v-87.51196c11.26664-1.61848 22.78551-2.45602 34.5-2.45602 132.82448 0 240.5 107.67552 240.5 240.5s-107.67552 240.5-240.5 240.5-240.5-107.67552-240.5-240.5c0-12.0613 0.88787-23.91524 2.60182-35.5z"/><rect width="80" height="161" x="620" y="613"/><rect width="80" height="161" x="620" y="77"/><rect width="80" height="152" x="354" y="360" transform="matrix(0,1,-1,0,830,42)"/></g></svg>