<svg xmlns="http://www.w3.org/2000/svg" width="26" height="26" x="0" y="0" viewBox="0 0 210 210" style="fill:#000"><g fill="none" fill-rule="nonzero" stroke="none" stroke-dashoffset="0" stroke-linecap="butt" stroke-linejoin="miter" stroke-miterlimit="10" stroke-width="1" font-family="none" font-size="none" font-weight="none" text-anchor="none" style="mix-blend-mode:normal"><path fill="none" d="M0,210v-210h210v210z"/><g><g id="surface1"><path fill="#fff" d="M28.875,13.125h152.25v183.75h-152.25z"/><path fill="#3498db" d="M178.5,15.75v178.5h-147v-178.5h147M183.75,10.5h-157.5v189h157.5z"/><path fill="#3498db" d="M154.875,73.5h-78.75c-1.45606,0 -2.625,-1.16894 -2.625,-2.625c0,-1.45606 1.16894,-2.625 2.625,-2.625h78.75c1.45606,0 2.625,1.16894 2.625,2.625c0,1.45606 -1.16894,2.625 -2.625,2.625z"/><path fill="#3498db" d="M60.375,73.5h-5.25c-1.45606,0 -2.625,-1.16894 -2.625,-2.625c0,-1.45606 1.16894,-2.625 2.625,-2.625h5.25c1.45606,0 2.625,1.16894 2.625,2.625c0,1.45606 -1.16894,2.625 -2.625,2.625z"/><path fill="#3498db" d="M154.875,94.5h-78.75c-1.45606,0 -2.625,-1.16894 -2.625,-2.625c0,-1.45606 1.16894,-2.625 2.625,-2.625h78.75c1.45606,0 2.625,1.16894 2.625,2.625c0,1.45606 -1.16894,2.625 -2.625,2.625z"/><path fill="#3498db" d="M60.375,94.5h-5.25c-1.45606,0 -2.625,-1.16894 -2.625,-2.625c0,-1.45606 1.16894,-2.625 2.625,-2.625h5.25c1.45606,0 2.625,1.16894 2.625,2.625c0,1.45606 -1.16894,2.625 -2.625,2.625z"/><path fill="#3498db" d="M154.875,115.5h-78.75c-1.45606,0 -2.625,-1.16894 -2.625,-2.625c0,-1.45606 1.16894,-2.625 2.625,-2.625h78.75c1.45606,0 2.625,1.16894 2.625,2.625c0,1.45606 -1.16894,2.625 -2.625,2.625z"/><path fill="#3498db" d="M60.375,115.5h-5.25c-1.45606,0 -2.625,-1.16894 -2.625,-2.625c0,-1.45606 1.16894,-2.625 2.625,-2.625h5.25c1.45606,0 2.625,1.16894 2.625,2.625c0,1.45606 -1.16894,2.625 -2.625,2.625z"/><path fill="#3498db" d="M154.875,136.5h-78.75c-1.45606,0 -2.625,-1.16894 -2.625,-2.625c0,-1.45606 1.16894,-2.625 2.625,-2.625h78.75c1.45606,0 2.625,1.16894 2.625,2.625c0,1.45606 -1.16894,2.625 -2.625,2.625z"/><path fill="#3498db" d="M60.375,136.5h-5.25c-1.45606,0 -2.625,-1.16894 -2.625,-2.625c0,-1.45606 1.16894,-2.625 2.625,-2.625h5.25c1.45606,0 2.625,1.16894 2.625,2.625c0,1.45606 -1.16894,2.625 -2.625,2.625z"/></g></g></g></svg>