<svg xmlns="http://www.w3.org/2000/svg" width="520.411" height="84.363" version="1.1" viewBox="0 0 487.885 79.091"><defs><marker id="d" orient="auto" overflow="visible" refX="0" refY="0"><path fill-rule="evenodd" stroke="#000" stroke-linejoin="round" stroke-width=".625" d="m8.7185878 4.0337352-10.9258773-4.01772194 10.9258779-4.01772106c-1.7454984 2.3720609-1.7354408 5.6174519-6e-7 8.035443z" transform="matrix(-1.1,0,0,-1.1,-1.1,0)"/></marker><marker id="f" orient="auto" overflow="visible" refX="0" refY="0"><path fill-rule="evenodd" stroke="#000" stroke-linejoin="round" stroke-width=".625" d="m8.7185878 4.0337352-10.9258773-4.01772194 10.9258779-4.01772106c-1.7454984 2.3720609-1.7354408 5.6174519-6e-7 8.035443z" transform="matrix(-1.1,0,0,-1.1,-1.1,0)"/></marker><marker id="e" orient="auto" overflow="visible" refX="0" refY="0"><path fill-rule="evenodd" stroke="#000" stroke-linejoin="round" stroke-width=".625" d="m8.7185878 4.0337352-10.9258773-4.01772194 10.9258779-4.01772106c-1.7454984 2.3720609-1.7354408 5.6174519-6e-7 8.035443z" transform="matrix(-1.1,0,0,-1.1,-1.1,0)"/></marker><marker id="a" orient="auto" overflow="visible" refX="0" refY="0"><path fill-rule="evenodd" stroke="#000" stroke-linejoin="round" stroke-width=".625" d="m8.7185878 4.0337352-10.9258773-4.01772194 10.9258779-4.01772106c-1.7454984 2.3720609-1.7354408 5.6174519-6e-7 8.035443z" transform="matrix(-1.1,0,0,-1.1,-1.1,0)"/></marker></defs><g transform="translate(-698.91461,-755.67407)"><text style="word-spacing:0;letter-spacing:0" x="699.431" y="770.936" fill="#000" font-family="sans-serif" font-size="12.5" line-height="125%" xml:space="preserve"><tspan x="699.431" y="770.936">Health Poller</tspan></text><rect width="80.812" height="20.203" x="699.415" y="756.174" fill="none" stroke="#000" stroke-linejoin="round"/><text style="word-spacing:0;letter-spacing:0" x="814.313" y="770.936" fill="#000" font-family="sans-serif" font-size="12.5" line-height="125%" xml:space="preserve"><tspan x="814.313" y="770.936">Health Fetcher</tspan></text><rect width="93.251" height="19.178" x="814.206" y="756.687" fill="none" stroke="#000" stroke-linejoin="round" stroke-width="1.015"/><text style="word-spacing:0;letter-spacing:0" x="935.148" y="770.948" fill="#000" font-family="sans-serif" font-size="12.5" line-height="125%" xml:space="preserve"><tspan x="935.148" y="770.948">Health Handler</tspan></text><g fill="none" stroke="#000" transform="translate(580.45263,191.46985)"><rect width="101.227" height="18.673" x="351.833" y="565.482" stroke-linejoin="round" stroke-width="1.04"/><path stroke-width="1.168" marker-end="url(#e)" d="m199.75767 574.82632h31.33815"/><path stroke-width="1.008" marker-end="url(#a)" d="m326.63648 574.82438h23.34915"/></g><text style="word-spacing:0;letter-spacing:0" x="814.67" y="802.936" fill="#000" font-family="sans-serif" font-size="12.5" line-height="125%" xml:space="preserve"><tspan x="814.67" y="802.936">Health Fetcher</tspan></text><rect width="93.961" height="19.174" x="814.208" y="788.689" fill="none" stroke="#000" stroke-linejoin="round" stroke-width="1.019"/><text style="word-spacing:0;letter-spacing:0" x="935.148" y="802.923" fill="#000" font-family="sans-serif" font-size="12.5" line-height="125%" xml:space="preserve"><tspan x="935.148" y="802.923">Health Handler</tspan></text><g fill="none" stroke="#000" transform="translate(580.45263,191.46985)"><rect width="101.227" height="18.673" x="351.833" y="597.457" stroke-linejoin="round" stroke-width="1.04"/><path stroke-width=".99" marker-end="url(#d)" d="m327.52933 606.82438h22.50905"/><path stroke-linejoin="round" stroke-width=".983" marker-end="url(#f)" d="m209.29773 574.83146v32.19643h23.23275"/><path stroke-width="1" d="m209.30647 606.99245v23.61232"/></g><text style="word-spacing:0;letter-spacing:0" x="783.799" y="834.765" fill="#000" font-family="sans-serif" font-size="12.5" line-height="125%" xml:space="preserve"><tspan x="783.799" y="834.765">...</tspan></text><path fill="none" stroke="#000" stroke-width="1.308" d="m1033.9299 766.8319h42.3724"/><path fill="none" stroke="#000" stroke-width="1" d="m1047.6932 766.95817v54.67451"/><text style="word-spacing:0;letter-spacing:0" x="1041.733" y="834.765" fill="#000" font-family="sans-serif" font-size="12.5" line-height="125%" xml:space="preserve"><tspan x="1041.733" y="834.765">...</tspan></text><path fill="none" stroke="#000" stroke-width="1" d="m1033.6312 798.2756h13.9286"/><text style="word-spacing:0;letter-spacing:0" x="1081.963" y="770.257" fill="#000" font-family="sans-serif" font-size="12.5" line-height="125%" xml:space="preserve"><tspan x="1081.963" y="770.257">Health Manager</tspan></text><rect width="107.55" height="20.172" x="1078.734" y="756.723" fill="none" stroke="#000" stroke-linejoin="round" stroke-width="1.031"/></g></svg>