<svg xmlns="http://www.w3.org/2000/svg" width="562.263" height="105.171" version="1.1" viewBox="0 0 527.122 98.598"><defs><marker id="a" orient="auto" overflow="visible" refX="0" refY="0"><path fill-rule="evenodd" stroke="#000" stroke-linejoin="round" stroke-width=".625" d="m8.7185878 4.0337352-10.9258773-4.01772194 10.9258779-4.01772106c-1.7454984 2.3720609-1.7354408 5.6174519-6e-7 8.035443z" transform="matrix(-1.1,0,0,-1.1,-1.1,0)"/></marker><marker id="b" orient="auto" overflow="visible" refX="0" refY="0"><path fill-rule="evenodd" stroke="#000" stroke-linejoin="round" stroke-width=".625" d="m8.7185878 4.0337352-10.9258773-4.01772194 10.9258779-4.01772106c-1.7454984 2.3720609-1.7354408 5.6174519-6e-7 8.035443z" transform="matrix(-1.1,0,0,-1.1,-1.1,0)"/></marker></defs><g><g transform="translate(2192.1323,79.79371) translate(-2162.3466,-389.51307)"><text style="word-spacing:0;letter-spacing:0" x="-18.897" y="327.239" fill="#000" font-family="sans-serif" font-size="12.5" line-height="125%" xml:space="preserve"><tspan x="-18.897" y="327.239">Monitor Config Poller</tspan></text><rect width="152.143" height="27.143" x="-29.286" y="310.219" fill="none" stroke="#000" stroke-linejoin="round"/></g><g transform="translate(2192.1323,79.79371) translate(-2173.0839,-322.3702)"><text style="word-spacing:0;letter-spacing:0" x="169.161" y="259.739" fill="#000" font-family="sans-serif" font-size="12.5" line-height="125%" xml:space="preserve"><tspan x="169.161" y="259.739">Monitor Config Manager</tspan></text><rect width="158.571" height="26.429" x="165.714" y="243.076" fill="none" stroke="#000" stroke-linejoin="round"/></g><path fill="none" stroke="#000" stroke-width="1" marker-end="url(#b)" d="m-2039.365-65.704665h30.8097" transform="translate(2192.1323,79.79371)"/><g transform="translate(2192.1323,79.79371) translate(-2169.0931,-324.85301)"><text style="word-spacing:0;letter-spacing:0" x="391.786" y="263.434" fill="#000" font-family="sans-serif" font-size="12.5" line-height="125%" xml:space="preserve"><tspan x="391.786" y="263.434">Stat Subscriber</tspan></text><rect width="116.071" height="23.214" x="382.154" y="247.166" fill="none" stroke="#000" stroke-linejoin="round"/></g><g transform="translate(2192.1323,79.79371) translate(-2174.4406,-322.80428)"><text style="word-spacing:0;letter-spacing:0" x="391.786" y="298.041" fill="#000" font-family="sans-serif" font-size="12.5" line-height="125%" xml:space="preserve"><tspan x="391.786" y="298.041">Health Subscriber</tspan></text><rect width="121.429" height="24.286" x="387.501" y="281.238" fill="none" stroke="#000" stroke-linejoin="round"/></g><text style="word-spacing:0;letter-spacing:0" x="-1781.298" y="11.892" fill="#000" font-family="sans-serif" font-size="12.5" line-height="125%" transform="translate(2192.1323,79.79371)" xml:space="preserve"><tspan x="-1781.298" y="11.892">Peer Subscriber</tspan></text><g fill="none" stroke="#000" stroke-linejoin="round" transform="translate(2192.1323,79.79371)"><rect width="110.714" height="22.143" x="-1786.939" y="-3.839"/><path stroke-width="1" marker-end="url(#a)" d="m-1848.7982-66.061805h60"/><path stroke-width="1.038" marker-end="url(#a)" d="m-1824.2686-65.784555v36.89474h35.2308"/><path stroke-width=".965" marker-end="url(#a)" d="m-1824.3933-31.370265v38.9710797h35.4721"/></g></g></svg>