<svg xmlns="http://www.w3.org/2000/svg" width="864.8" height="125.388" version="1.1" viewBox="0 0 810.75 117.551"><defs><marker id="d" orient="auto" overflow="visible" refX="0" refY="0"><path fill-rule="evenodd" stroke="#000" stroke-linejoin="round" stroke-width=".625" d="m8.7185878 4.0337352-10.9258773-4.01772194 10.9258779-4.01772106c-1.7454984 2.3720609-1.7354408 5.6174519-6e-7 8.035443z" transform="matrix(-1.1,0,0,-1.1,-1.1,0)"/></marker><marker id="c" orient="auto" overflow="visible" refX="0" refY="0"><path fill-rule="evenodd" stroke="#000" stroke-linejoin="round" stroke-width=".625" d="m8.7185878 4.0337352-10.9258773-4.01772194 10.9258779-4.01772106c-1.7454984 2.3720609-1.7354408 5.6174519-6e-7 8.035443z" transform="matrix(-1.1,0,0,-1.1,-1.1,0)"/></marker><marker id="b" orient="auto" overflow="visible" refX="0" refY="0"><path fill-rule="evenodd" stroke="#000" stroke-linejoin="round" stroke-width=".625" d="m8.7185878 4.0337352-10.9258773-4.01772194 10.9258779-4.01772106c-1.7454984 2.3720609-1.7354408 5.6174519-6e-7 8.035443z" transform="matrix(-1.1,0,0,-1.1,-1.1,0)"/></marker><marker id="a" orient="auto" overflow="visible" refX="0" refY="0"><path fill-rule="evenodd" stroke="#000" stroke-linejoin="round" stroke-width=".625" d="m8.7185878 4.0337352-10.9258773-4.01772194 10.9258779-4.01772106c-1.7454984 2.3720609-1.7354408 5.6174519-6e-7 8.035443z" transform="matrix(-1.1,0,0,-1.1,-1.1,0)"/></marker><marker id="e" orient="auto" overflow="visible" refX="0" refY="0"><path fill-rule="evenodd" stroke="#000" stroke-linejoin="round" stroke-width=".625" d="m8.7185878 4.0337352-10.9258773-4.01772194 10.9258779-4.01772106c-1.7454984 2.3720609-1.7354408 5.6174519-6e-7 8.035443z" transform="matrix(-1.1,0,0,-1.1,-1.1,0)"/></marker></defs><text style="word-spacing:0;letter-spacing:0" x="21.199" y="18.848" fill="#000" font-family="sans-serif" font-size="40" line-height="125%" xml:space="preserve"><tspan x="21.199" y="18.848" font-size="12.5">Ops Config Poller</tspan></text><rect width="148.998" height="29.799" x=".5" y=".5" fill="none" stroke="#000"/><g transform="translate(6.2562755,-58.882248)"><text style="word-spacing:0;letter-spacing:0" x="197.582" y="77.73" fill="#000" font-family="sans-serif" font-size="40" line-height="125%" xml:space="preserve"><tspan x="197.582" y="77.73" font-size="12.5">Ops Config Handler</tspan></text><rect width="148.998" height="29.799" x="184.244" y="59.382" fill="none" stroke="#000"/></g><g transform="translate(36.256275,-58.882248)"><text style="word-spacing:0;letter-spacing:0" x="354.787" y="77.73" fill="#000" font-family="sans-serif" font-size="40" line-height="125%" xml:space="preserve"><tspan x="354.787" y="77.73" font-size="12.5">Ops Config Manager</tspan></text><rect width="148.998" height="29.799" x="344.244" y="59.382" fill="none" stroke="#000"/></g><g fill="none" stroke="#000"><path stroke-width=".993" marker-end="url(#e)" d="m173.61997 74.299617h39.48186" transform="translate(-23.743725,-58.882248)"/><path stroke-width=".993" marker-end="url(#a)" d="m363.61997 74.299617h39.48186" transform="translate(-23.743725,-58.882248)"/><path stroke-width="1" marker-end="url(#b)" d="m553.21429 74.299617h36.42857" transform="translate(-23.743725,-58.882248)"/></g><text style="word-spacing:0;letter-spacing:0" x="578.308" y="18.848" fill="#000" font-family="sans-serif" font-size="40" line-height="125%" xml:space="preserve"><tspan x="578.308" y="18.848" font-size="12.5">Restart HTTP Server</tspan></text><rect width="148.998" height="29.799" x="567.393" y=".5" fill="none" stroke="#000"/><g transform="translate(-23.743725,-54.931442)"><text style="word-spacing:0;letter-spacing:0" x="598.159" y="117.73" fill="#000" font-family="sans-serif" font-size="40" line-height="125%" xml:space="preserve"><tspan x="598.159" y="117.73" font-size="12.5">Ops Config Change Subscriber</tspan></text><rect width="205.434" height="29.629" x="591.222" y="99.468" fill="none" stroke="#000" stroke-width="1.171"/></g><path fill="none" stroke="#000" stroke-linejoin="round" stroke-width=".986" marker-end="url(#c)" d="m542.87285 15.419942v41.82935h23.40799"/><g transform="translate(-29.035811,-58.882248)"><text style="word-spacing:0;letter-spacing:0" x="603.624" y="165.632" fill="#000" font-family="sans-serif" font-size="12.5" line-height="125%" xml:space="preserve"><tspan x="603.624" y="165.632">Traffic Ops Client Change Subscriber</tspan></text><rect width="242.857" height="27.5" x="596.429" y="148.434" fill="none" stroke="#000" stroke-linejoin="round"/></g><path fill="none" stroke="#000" stroke-linejoin="round" stroke-width=".985" marker-end="url(#d)" d="m542.83548 56.916602v47.397568h23.37602"/></svg>