<svg xmlns="http://www.w3.org/2000/svg" width="504.874" height="84.363" version="1.1" viewBox="0 0 473.319 79.091"><defs><marker id="e" orient="auto" overflow="visible" refX="0" refY="0"><path fill-rule="evenodd" stroke="#000" stroke-linejoin="round" stroke-width=".625" d="m8.7185878 4.0337352-10.9258773-4.01772194 10.9258779-4.01772106c-1.7454984 2.3720609-1.7354408 5.6174519-6e-7 8.035443z" transform="matrix(-1.1,0,0,-1.1,-1.1,0)"/></marker><marker id="g" orient="auto" overflow="visible" refX="0" refY="0"><path fill-rule="evenodd" stroke="#000" stroke-linejoin="round" stroke-width=".625" d="m8.7185878 4.0337352-10.9258773-4.01772194 10.9258779-4.01772106c-1.7454984 2.3720609-1.7354408 5.6174519-6e-7 8.035443z" transform="matrix(-1.1,0,0,-1.1,-1.1,0)"/></marker><marker id="a" orient="auto" overflow="visible" refX="0" refY="0"><path fill-rule="evenodd" stroke="#000" stroke-linejoin="round" stroke-width=".625" d="m8.7185878 4.0337352-10.9258773-4.01772194 10.9258779-4.01772106c-1.7454984 2.3720609-1.7354408 5.6174519-6e-7 8.035443z" transform="matrix(-1.1,0,0,-1.1,-1.1,0)"/></marker><marker id="f" orient="auto" overflow="visible" refX="0" refY="0"><path fill-rule="evenodd" stroke="#000" stroke-linejoin="round" stroke-width=".625" d="m8.7185878 4.0337352-10.9258773-4.01772194 10.9258779-4.01772106c-1.7454984 2.3720609-1.7354408 5.6174519-6e-7 8.035443z" transform="matrix(-1.1,0,0,-1.1,-1.1,0)"/></marker></defs><text style="word-spacing:0;letter-spacing:0" x="7.23" y="15.262" fill="#000" font-family="sans-serif" font-size="12.5" line-height="125%" xml:space="preserve"><tspan x="7.23" y="15.262">Peer Poller</tspan></text><rect width="80.812" height="20.203" x=".5" y=".5" fill="none" stroke="#000" stroke-linejoin="round"/><text style="word-spacing:0;letter-spacing:0" x="120.684" y="15.262" fill="#000" font-family="sans-serif" font-size="12.5" line-height="125%" xml:space="preserve"><tspan x="120.684" y="15.262">Peer Fetcher</tspan></text><rect width="90.409" height="19.193" x="115.284" y="1.005" fill="none" stroke="#000" stroke-linejoin="round"/><text style="word-spacing:0;letter-spacing:0" x="239.033" y="15.262" fill="#000" font-family="sans-serif" font-size="12.5" line-height="125%" xml:space="preserve"><tspan x="239.033" y="15.262">Peer Handler</tspan></text><g fill="none" stroke="#000"><rect width="93.439" height="18.688" x="233.35" y="1.258" stroke-linejoin="round"/><path stroke-width="1.168" marker-end="url(#f)" d="m81.295648 10.62211h31.338152"/><path stroke-width="1.057" marker-end="url(#a)" d="m205.67446 10.62017h25.68822"/></g><text style="word-spacing:0;letter-spacing:0" x="120.684" y="47.262" fill="#000" font-family="sans-serif" font-size="12.5" line-height="125%" xml:space="preserve"><tspan x="120.684" y="47.262">Peer Fetcher</tspan></text><rect width="90.409" height="19.193" x="115.284" y="33.005" fill="none" stroke="#000" stroke-linejoin="round"/><text style="word-spacing:0;letter-spacing:0" x="239.033" y="47.262" fill="#000" font-family="sans-serif" font-size="12.5" line-height="125%" xml:space="preserve"><tspan x="239.033" y="47.262">Peer Handler</tspan></text><rect width="93.439" height="18.688" x="233.35" y="33.258" fill="none" stroke="#000" stroke-linejoin="round"/><g fill="none" stroke="#000"><path stroke-width="1.057" marker-end="url(#a)" d="m324.13648 726.82438h25.68822" transform="translate(-118.46202,-684.20421)"/><path stroke-linejoin="round" stroke-width=".983" marker-end="url(#g)" d="m209.29773 694.83146v32.19643h23.23275" transform="translate(-118.46202,-684.20421)"/><path stroke-width="1" d="m209.30647 726.99245v23.61232" transform="translate(-118.46202,-684.20421)"/></g><text style="word-spacing:0;letter-spacing:0" x="84.884" y="79.091" fill="#000" font-family="sans-serif" font-size="12.5" line-height="125%" xml:space="preserve"><tspan x="84.884" y="79.091">...</tspan></text><path fill="none" stroke="#000" stroke-width="1.308" marker-end="url(#e)" d="m327.01525 11.15784h42.37241"/><path fill="none" stroke="#000" stroke-width="1" d="m340.77858 11.28411v54.67451"/><text style="word-spacing:0;letter-spacing:0" x="334.818" y="79.091" fill="#000" font-family="sans-serif" font-size="12.5" line-height="125%" xml:space="preserve"><tspan x="334.818" y="79.091">...</tspan></text><path fill="none" stroke="#000" stroke-width="1" d="m326.71655 42.60154h13.92857"/><text style="word-spacing:0;letter-spacing:0" x="378.479" y="14.391" fill="#000" font-family="sans-serif" font-size="12.5" line-height="125%" xml:space="preserve"><tspan x="378.479" y="14.391">Peer Manager</tspan></text><rect width="101.015" height="20.203" x="371.804" y="1.033" fill="none" stroke="#000" stroke-linejoin="round"/></svg>