<svg xmlns="http://www.w3.org/2000/svg" width="1344.271" height="751.373" version="1.1" viewBox="0 0 1260.254 704.413"><defs><marker id="e" orient="auto" overflow="visible" refX="0" refY="0"><path fill-rule="evenodd" stroke="#000" stroke-linejoin="round" stroke-width=".625" d="m8.7185878 4.0337352-10.9258773-4.01772194 10.9258779-4.01772106c-1.7454984 2.3720609-1.7354408 5.6174519-6e-7 8.035443z" transform="matrix(-1.1,0,0,-1.1,-1.1,0)"/></marker><marker id="f" orient="auto" overflow="visible" refX="0" refY="0"><path fill-rule="evenodd" stroke="#000" stroke-linejoin="round" stroke-width=".625" d="m8.7185878 4.0337352-10.9258773-4.01772194 10.9258779-4.01772106c-1.7454984 2.3720609-1.7354408 5.6174519-6e-7 8.035443z" transform="matrix(-1.1,0,0,-1.1,-1.1,0)"/></marker><marker id="g" orient="auto" overflow="visible" refX="0" refY="0"><path fill-rule="evenodd" stroke="#000" stroke-linejoin="round" stroke-width=".625" d="m8.7185878 4.0337352-10.9258773-4.01772194 10.9258779-4.01772106c-1.7454984 2.3720609-1.7354408 5.6174519-6e-7 8.035443z" transform="matrix(-1.1,0,0,-1.1,-1.1,0)"/></marker><marker id="h" orient="auto" overflow="visible" refX="0" refY="0"><path fill-rule="evenodd" stroke="#000" stroke-linejoin="round" stroke-width=".625" d="m8.7185878 4.0337352-10.9258773-4.01772194 10.9258779-4.01772106c-1.7454984 2.3720609-1.7354408 5.6174519-6e-7 8.035443z" transform="matrix(-1.1,0,0,-1.1,-1.1,0)"/></marker><marker id="i" orient="auto" overflow="visible" refX="0" refY="0"><path fill-rule="evenodd" stroke="#000" stroke-linejoin="round" stroke-width=".625" d="m8.7185878 4.0337352-10.9258773-4.01772194 10.9258779-4.01772106c-1.7454984 2.3720609-1.7354408 5.6174519-6e-7 8.035443z" transform="matrix(-1.1,0,0,-1.1,-1.1,0)"/></marker><marker id="j" orient="auto" overflow="visible" refX="0" refY="0"><path fill-rule="evenodd" stroke="#000" stroke-linejoin="round" stroke-width=".625" d="m8.7185878 4.0337352-10.9258773-4.01772194 10.9258779-4.01772106c-1.7454984 2.3720609-1.7354408 5.6174519-6e-7 8.035443z" transform="matrix(-1.1,0,0,-1.1,-1.1,0)"/></marker><marker id="k" orient="auto" overflow="visible" refX="0" refY="0"><path fill-rule="evenodd" stroke="#000" stroke-linejoin="round" stroke-width=".625" d="m8.7185878 4.0337352-10.9258773-4.01772194 10.9258779-4.01772106c-1.7454984 2.3720609-1.7354408 5.6174519-6e-7 8.035443z" transform="matrix(-1.1,0,0,-1.1,-1.1,0)"/></marker><marker id="l" orient="auto" overflow="visible" refX="0" refY="0"><path fill-rule="evenodd" stroke="#000" stroke-linejoin="round" stroke-width=".625" d="m8.7185878 4.0337352-10.9258773-4.01772194 10.9258779-4.01772106c-1.7454984 2.3720609-1.7354408 5.6174519-6e-7 8.035443z" transform="matrix(-1.1,0,0,-1.1,-1.1,0)"/></marker><marker id="m" orient="auto" overflow="visible" refX="0" refY="0"><path fill-rule="evenodd" stroke="#000" stroke-linejoin="round" stroke-width=".625" d="m8.7185878 4.0337352-10.9258773-4.01772194 10.9258779-4.01772106c-1.7454984 2.3720609-1.7354408 5.6174519-6e-7 8.035443z" transform="matrix(-1.1,0,0,-1.1,-1.1,0)"/></marker><marker id="n" orient="auto" overflow="visible" refX="0" refY="0"><path fill-rule="evenodd" stroke="#000" stroke-linejoin="round" stroke-width=".625" d="m8.7185878 4.0337352-10.9258773-4.01772194 10.9258779-4.01772106c-1.7454984 2.3720609-1.7354408 5.6174519-6e-7 8.035443z" transform="matrix(-1.1,0,0,-1.1,-1.1,0)"/></marker><marker id="o" orient="auto" overflow="visible" refX="0" refY="0"><path fill-rule="evenodd" stroke="#000" stroke-linejoin="round" stroke-width=".625" d="m8.7185878 4.0337352-10.9258773-4.01772194 10.9258779-4.01772106c-1.7454984 2.3720609-1.7354408 5.6174519-6e-7 8.035443z" transform="matrix(-1.1,0,0,-1.1,-1.1,0)"/></marker><marker id="p" orient="auto" overflow="visible" refX="0" refY="0"><path fill-rule="evenodd" stroke="#000" stroke-linejoin="round" stroke-width=".625" d="m8.7185878 4.0337352-10.9258773-4.01772194 10.9258779-4.01772106c-1.7454984 2.3720609-1.7354408 5.6174519-6e-7 8.035443z" transform="matrix(-1.1,0,0,-1.1,-1.1,0)"/></marker><marker id="d" orient="auto" overflow="visible" refX="0" refY="0"><path fill-rule="evenodd" stroke="#000" stroke-linejoin="round" stroke-width=".625" d="m8.7185878 4.0337352-10.9258773-4.01772194 10.9258779-4.01772106c-1.7454984 2.3720609-1.7354408 5.6174519-6e-7 8.035443z" transform="matrix(-1.1,0,0,-1.1,-1.1,0)"/></marker><marker id="b" orient="auto" overflow="visible" refX="0" refY="0"><path fill-rule="evenodd" stroke="#000" stroke-linejoin="round" stroke-width=".625" d="m8.7185878 4.0337352-10.9258773-4.01772194 10.9258779-4.01772106c-1.7454984 2.3720609-1.7354408 5.6174519-6e-7 8.035443z" transform="matrix(-1.1,0,0,-1.1,-1.1,0)"/></marker><marker id="a" orient="auto" overflow="visible" refX="0" refY="0"><path fill-rule="evenodd" stroke="#000" stroke-linejoin="round" stroke-width=".625" d="m8.7185878 4.0337352-10.9258773-4.01772194 10.9258779-4.01772106c-1.7454984 2.3720609-1.7354408 5.6174519-6e-7 8.035443z" transform="matrix(-1.1,0,0,-1.1,-1.1,0)"/></marker><marker id="c" orient="auto" overflow="visible" refX="0" refY="0"><path fill-rule="evenodd" stroke="#000" stroke-linejoin="round" stroke-width=".625" d="m8.7185878 4.0337352-10.9258773-4.01772194 10.9258779-4.01772106c-1.7454984 2.3720609-1.7354408 5.6174519-6e-7 8.035443z" transform="matrix(-1.1,0,0,-1.1,-1.1,0)"/></marker><marker id="q" orient="auto" overflow="visible" refX="0" refY="0"><path fill-rule="evenodd" stroke="#000" stroke-linejoin="round" stroke-width=".625" d="m8.7185878 4.0337352-10.9258773-4.01772194 10.9258779-4.01772106c-1.7454984 2.3720609-1.7354408 5.6174519-6e-7 8.035443z" transform="matrix(-1.1,0,0,-1.1,-1.1,0)"/></marker><marker id="r" orient="auto" overflow="visible" refX="0" refY="0"><path fill-rule="evenodd" stroke="#000" stroke-linejoin="round" stroke-width=".625" d="m8.7185878 4.0337352-10.9258773-4.01772194 10.9258779-4.01772106c-1.7454984 2.3720609-1.7354408 5.6174519-6e-7 8.035443z" transform="matrix(-1.1,0,0,-1.1,-1.1,0)"/></marker><marker id="s" orient="auto" overflow="visible" refX="0" refY="0"><path fill-rule="evenodd" stroke="#000" stroke-linejoin="round" stroke-width=".625" d="m8.7185878 4.0337352-10.9258773-4.01772194 10.9258779-4.01772106c-1.7454984 2.3720609-1.7354408 5.6174519-6e-7 8.035443z" transform="matrix(-1.1,0,0,-1.1,-1.1,0)"/></marker><marker id="t" orient="auto" overflow="visible" refX="0" refY="0"><path fill-rule="evenodd" stroke="#000" stroke-linejoin="round" stroke-width=".625" d="m8.7185878 4.0337352-10.9258773-4.01772194 10.9258779-4.01772106c-1.7454984 2.3720609-1.7354408 5.6174519-6e-7 8.035443z" transform="matrix(-1.1,0,0,-1.1,-1.1,0)"/></marker><marker id="u" orient="auto" overflow="visible" refX="0" refY="0"><path fill-rule="evenodd" stroke="#000" stroke-linejoin="round" stroke-width=".625" d="m8.7185878 4.0337352-10.9258773-4.01772194 10.9258779-4.01772106c-1.7454984 2.3720609-1.7354408 5.6174519-6e-7 8.035443z" transform="matrix(-1.1,0,0,-1.1,-1.1,0)"/></marker><marker id="v" orient="auto" overflow="visible" refX="0" refY="0"><path fill-rule="evenodd" stroke="#000" stroke-linejoin="round" stroke-width=".625" d="m8.7185878 4.0337352-10.9258773-4.01772194 10.9258779-4.01772106c-1.7454984 2.3720609-1.7354408 5.6174519-6e-7 8.035443z" transform="matrix(-1.1,0,0,-1.1,-1.1,0)"/></marker><marker id="w" orient="auto" overflow="visible" refX="0" refY="0"><path fill-rule="evenodd" stroke="#000" stroke-linejoin="round" stroke-width=".625" d="m8.7185878 4.0337352-10.9258773-4.01772194 10.9258779-4.01772106c-1.7454984 2.3720609-1.7354408 5.6174519-6e-7 8.035443z" transform="matrix(-1.1,0,0,-1.1,-1.1,0)"/></marker><marker id="x" orient="auto" overflow="visible" refX="0" refY="0"><path fill-rule="evenodd" stroke="#000" stroke-linejoin="round" stroke-width=".625" d="m8.7185878 4.0337352-10.9258773-4.01772194 10.9258779-4.01772106c-1.7454984 2.3720609-1.7354408 5.6174519-6e-7 8.035443z" transform="matrix(-1.1,0,0,-1.1,-1.1,0)"/></marker><marker id="y" orient="auto" overflow="visible" refX="0" refY="0"><path fill-rule="evenodd" stroke="#000" stroke-linejoin="round" stroke-width=".625" d="m8.7185878 4.0337352-10.9258773-4.01772194 10.9258779-4.01772106c-1.7454984 2.3720609-1.7354408 5.6174519-6e-7 8.035443z" transform="matrix(-1.1,0,0,-1.1,-1.1,0)"/></marker><marker id="z" orient="auto" overflow="visible" refX="0" refY="0"><path fill-rule="evenodd" stroke="#000" stroke-linejoin="round" stroke-width=".625" d="m8.7185878 4.0337352-10.9258773-4.01772194 10.9258779-4.01772106c-1.7454984 2.3720609-1.7354408 5.6174519-6e-7 8.035443z" transform="matrix(-1.1,0,0,-1.1,-1.1,0)"/></marker><marker id="ab" orient="auto" overflow="visible" refX="0" refY="0"><path fill-rule="evenodd" stroke="#000" stroke-linejoin="round" stroke-width=".625" d="m8.7185878 4.0337352-10.9258773-4.01772194 10.9258779-4.01772106c-1.7454984 2.3720609-1.7354408 5.6174519-6e-7 8.035443z" transform="matrix(-1.1,0,0,-1.1,-1.1,0)"/></marker><clipPath id="aa" clipPathUnits="userSpaceOnUse"><path fill="none" stroke="#000" stroke-linejoin="round" stroke-width=".99" d="m1125.6855 353.07812a42.5 44.107143 0 0 0 -42.8261 43.72071 42.5 44.107143 0 0 0 0.055 2.19336 50.892857 36.964287 0 0 0 -0.8457 -0.0977 28.392857 22.5 0 0 0 0.072 -0.93359v-0.0899a28.392857 22.5 0 0 0 -28.1738 -22.65039 28.392857 22.5 0 0 0 -28.3399 19.54297 34.107143 30.178572 0 0 0 -13.043 -2.40039 34.107143 30.178572 0 0 0 -34.37106 29.91406 34.107143 30.178572 0 0 0 33.77346 30.44141 34.107143 30.178572 0 0 0 15.5254 -3.16016 50.892857 36.964287 0 0 0 46.4551 22.80274 50.892857 36.964287 0 0 0 43.4707 -17.24805 33.75 15.892858 0 0 0 18.125 2.60547 33.75 15.892858 0 0 0 34.0761 -15.7207v-0.0645a33.75 15.892858 0 0 0 -14.625 -13.19726 42.5 44.107143 0 0 0 12.8379 -31.07813v-0.17773a42.5 44.107143 0 0 0 -42.17 -44.40235z"/></clipPath></defs><g transform="translate(19.048405,-58.882248)"><text style="word-spacing:0;letter-spacing:0" x="44.943" y="77.73" fill="#000" font-family="sans-serif" font-size="40" line-height="125%" xml:space="preserve"><tspan x="44.943" y="77.73" font-size="12.5">Ops Config Poller</tspan></text><rect width="148.998" height="29.799" x="24.244" y="59.382" fill="none" stroke="#000"/><g transform="translate(30)"><text style="word-spacing:0;letter-spacing:0" x="197.582" y="77.73" fill="#000" font-family="sans-serif" font-size="40" line-height="125%" xml:space="preserve"><tspan x="197.582" y="77.73" font-size="12.5">Ops Config Handler</tspan></text><rect width="148.998" height="29.799" x="184.244" y="59.382" fill="none" stroke="#000"/></g><g transform="translate(60)"><text style="word-spacing:0;letter-spacing:0" x="354.787" y="77.73" fill="#000" font-family="sans-serif" font-size="40" line-height="125%" xml:space="preserve"><tspan x="354.787" y="77.73" font-size="12.5">Ops Config Manager</tspan></text><rect width="148.998" height="29.799" x="344.244" y="59.382" fill="none" stroke="#000"/></g><g fill="none" stroke="#000"><path stroke-width=".993" marker-end="url(#ab)" d="m173.61997 74.299617h39.48186"/><path stroke-width=".993" marker-end="url(#z)" d="m363.61997 74.299617h39.48186"/><path stroke-width="1" marker-end="url(#y)" d="m553.21429 74.299617h36.42857"/></g><text style="word-spacing:0;letter-spacing:0" x="602.052" y="77.73" fill="#000" font-family="sans-serif" font-size="40" line-height="125%" xml:space="preserve"><tspan x="602.052" y="77.73" font-size="12.5">Restart HTTP Server</tspan></text><rect width="148.998" height="29.799" x="591.136" y="59.382" fill="none" stroke="#000"/><g transform="translate(0,3.9508057)"><text style="word-spacing:0;letter-spacing:0" x="598.159" y="117.73" fill="#000" font-family="sans-serif" font-size="40" line-height="125%" xml:space="preserve"><tspan x="598.159" y="117.73" font-size="12.5">Ops Config Change Subscriber</tspan></text><rect width="205.434" height="29.629" x="591.222" y="99.468" fill="none" stroke="#000" stroke-width="1.171"/></g><path fill="none" stroke="#000" stroke-linejoin="round" stroke-width=".986" marker-end="url(#x)" d="m566.61657 74.30219v41.82935h23.40799"/><g transform="translate(-5.2920856)"><text style="word-spacing:0;letter-spacing:0" x="603.624" y="165.632" fill="#000" font-family="sans-serif" font-size="12.5" line-height="125%" xml:space="preserve"><tspan x="603.624" y="165.632">Traffic Ops Client Change Subscriber</tspan></text><rect width="242.857" height="27.5" x="596.429" y="148.434" fill="none" stroke="#000" stroke-linejoin="round"/></g><g fill="none" stroke="#000" stroke-linejoin="round"><path stroke-width=".985" marker-end="url(#w)" d="m566.5792 115.79885v47.39757h23.37602"/><path stroke-width="1" d="m796.42857 117.00506h57.5v47.3793"/><path stroke-width="1" marker-end="url(#v)" d="m833.88093 162.67035h19.95051v45.7094h-796.252745v30.80966"/></g><g transform="translate(10.73731,-68.757614)"><text style="word-spacing:0;letter-spacing:0" x="-18.897" y="327.239" fill="#000" font-family="sans-serif" font-size="12.5" line-height="125%" xml:space="preserve"><tspan x="-18.897" y="327.239">Monitor Config Poller</tspan></text><rect width="152.143" height="27.143" x="-29.286" y="310.219" fill="none" stroke="#000" stroke-linejoin="round"/></g><g transform="translate(0,-1.614746)"><text style="word-spacing:0;letter-spacing:0" x="169.161" y="259.739" fill="#000" font-family="sans-serif" font-size="12.5" line-height="125%" xml:space="preserve"><tspan x="169.161" y="259.739">Monitor Config Manager</tspan></text><rect width="158.571" height="26.429" x="165.714" y="243.076" fill="none" stroke="#000" stroke-linejoin="round"/></g><path fill="none" stroke="#000" stroke-width="1" marker-end="url(#u)" d="m133.71894 255.05079h30.80966"/><g transform="translate(3.9908142,-4.0975532)"><text style="word-spacing:0;letter-spacing:0" x="391.786" y="263.434" fill="#000" font-family="sans-serif" font-size="12.5" line-height="125%" xml:space="preserve"><tspan x="391.786" y="263.434">Stat Subscriber</tspan></text><rect width="116.071" height="23.214" x="382.154" y="247.166" fill="none" stroke="#000" stroke-linejoin="round"/></g><g transform="translate(-1.35672,-2.0488281)"><text style="word-spacing:0;letter-spacing:0" x="391.786" y="298.041" fill="#000" font-family="sans-serif" font-size="12.5" line-height="125%" xml:space="preserve"><tspan x="391.786" y="298.041">Health Subscriber</tspan></text><rect width="121.429" height="24.286" x="387.501" y="281.238" fill="none" stroke="#000" stroke-linejoin="round"/></g><text style="word-spacing:0;letter-spacing:0" x="391.786" y="332.648" fill="#000" font-family="sans-serif" font-size="12.5" line-height="125%" xml:space="preserve"><tspan x="391.786" y="332.648">Peer Subscriber</tspan></text><rect width="110.714" height="22.143" x="386.145" y="316.916" fill="none" stroke="#000" stroke-linejoin="round"/><g fill="none" stroke="#000" stroke-linejoin="round"><path stroke-width="1" marker-end="url(#t)" d="m324.28571 254.69365h60.00001"/><path stroke-width="1.038" marker-end="url(#s)" d="m348.81527 254.9709v36.89474h35.23079"/><path stroke-width=".965" marker-end="url(#r)" d="m348.69062 289.38519v38.97108h35.4721"/><path stroke-width="1" marker-end="url(#q)" d="m502.04582 254.84677h53.033v160.10918h-474.771693v39.90102h36.365493"/></g><g transform="translate(-4.8207485 -.94701795)"><text style="word-spacing:0;letter-spacing:0" x="131.825" y="460.413" fill="#000" font-family="sans-serif" font-size="12.5" line-height="125%" xml:space="preserve"><tspan x="131.825" y="460.413">Stat Poller</tspan></text><rect width="80.812" height="20.203" x="123.783" y="445.651" fill="none" stroke="#000" stroke-linejoin="round"/></g><g transform="translate(1.4105835,-5.6070722)"><text style="word-spacing:0;letter-spacing:0" x="239.048" y="465.073" fill="#000" font-family="sans-serif" font-size="12.5" line-height="125%" xml:space="preserve"><tspan x="239.048" y="465.073">Stat Fetcher</tspan></text><rect width="90.409" height="19.193" x="232.335" y="450.816" fill="none" stroke="#000" stroke-linejoin="round"/></g><g transform="translate(20,-3.533337)"><text style="word-spacing:0;letter-spacing:0" x="338.807" y="462.999" fill="#000" font-family="sans-serif" font-size="12.5" line-height="125%" xml:space="preserve"><tspan x="338.807" y="462.999">Stat Handler</tspan></text><rect width="93.439" height="18.688" x="331.812" y="448.995" fill="none" stroke="#000" stroke-linejoin="round"/></g><path fill="none" stroke="#000" stroke-width="1.168" marker-end="url(#c)" d="m199.75767 454.82632h31.33815"/><path fill="none" stroke="#000" stroke-width="1.057" marker-end="url(#a)" d="m324.13648 454.82438h25.68822"/><g transform="translate(1.4105835,26.392928)"><text style="word-spacing:0;letter-spacing:0" x="239.048" y="465.073" fill="#000" font-family="sans-serif" font-size="12.5" line-height="125%" xml:space="preserve"><tspan x="239.048" y="465.073">Stat Fetcher</tspan></text><rect width="90.409" height="19.193" x="232.335" y="450.816" fill="none" stroke="#000" stroke-linejoin="round"/></g><g transform="translate(20,28.466663)"><text style="word-spacing:0;letter-spacing:0" x="338.807" y="462.999" fill="#000" font-family="sans-serif" font-size="12.5" line-height="125%" xml:space="preserve"><tspan x="338.807" y="462.999">Stat Handler</tspan></text><rect width="93.439" height="18.688" x="331.812" y="448.995" fill="none" stroke="#000" stroke-linejoin="round"/></g><g fill="none" stroke="#000"><path stroke-width="1.057" marker-end="url(#a)" d="m324.13648 486.82438h25.68822"/><path stroke-linejoin="round" stroke-width=".983" marker-end="url(#b)" d="m209.29773 454.83146v32.19643h23.23275"/><path stroke-width="1" d="m209.30647 486.99245v23.61232"/></g><text style="word-spacing:0;letter-spacing:0" x="203.346" y="523.295" fill="#000" font-family="sans-serif" font-size="12.5" line-height="125%" xml:space="preserve"><tspan x="203.346" y="523.295">...</tspan></text><path fill="none" stroke="#000" stroke-width="1.308" marker-end="url(#d)" d="m445.47727 455.36205h42.37241"/><path fill="none" stroke="#000" stroke-width="1" d="m459.2406 455.48832v54.67451"/><text style="word-spacing:0;letter-spacing:0" x="453.281" y="523.295" fill="#000" font-family="sans-serif" font-size="12.5" line-height="125%" xml:space="preserve"><tspan x="453.281" y="523.295">...</tspan></text><path fill="none" stroke="#000" stroke-width="1" d="m445.17857 486.80575h13.92857"/><g transform="translate(-11.368655,-8.30116)"><text style="word-spacing:0;letter-spacing:0" x="509.622" y="466.979" fill="#000" font-family="sans-serif" font-size="12.5" line-height="125%" xml:space="preserve"><tspan x="509.622" y="466.979">Stat Manager</tspan></text><rect width="101.015" height="20.203" x="501.634" y="453.539" fill="none" stroke="#000" stroke-linejoin="round"/></g><text style="word-spacing:0;letter-spacing:0" x="118.978" y="579.466" fill="#000" font-family="sans-serif" font-size="12.5" line-height="125%" xml:space="preserve"><tspan x="118.978" y="579.466">Health Poller</tspan></text><rect width="80.812" height="20.203" x="118.962" y="564.704" fill="none" stroke="#000" stroke-linejoin="round"/><text style="word-spacing:0;letter-spacing:0" x="233.861" y="579.466" fill="#000" font-family="sans-serif" font-size="12.5" line-height="125%" xml:space="preserve"><tspan x="233.861" y="579.466">Health Fetcher</tspan></text><rect width="93.251" height="19.178" x="233.753" y="565.217" fill="none" stroke="#000" stroke-linejoin="round" stroke-width="1.015"/><text style="word-spacing:0;letter-spacing:0" x="354.695" y="579.479" fill="#000" font-family="sans-serif" font-size="12.5" line-height="125%" xml:space="preserve"><tspan x="354.695" y="579.479">Health Handler</tspan></text><g fill="none" stroke="#000"><rect width="101.227" height="18.673" x="351.833" y="565.482" stroke-linejoin="round" stroke-width="1.04"/><path stroke-width="1.168" marker-end="url(#c)" d="m199.75767 574.82632h31.33815"/><path stroke-width="1.008" marker-end="url(#p)" d="m326.63648 574.82438h23.34915"/></g><text style="word-spacing:0;letter-spacing:0" x="234.218" y="611.466" fill="#000" font-family="sans-serif" font-size="12.5" line-height="125%" xml:space="preserve"><tspan x="234.218" y="611.466">Health Fetcher</tspan></text><rect width="93.961" height="19.174" x="233.755" y="597.219" fill="none" stroke="#000" stroke-linejoin="round" stroke-width="1.019"/><text style="word-spacing:0;letter-spacing:0" x="354.695" y="611.453" fill="#000" font-family="sans-serif" font-size="12.5" line-height="125%" xml:space="preserve"><tspan x="354.695" y="611.453">Health Handler</tspan></text><g fill="none" stroke="#000"><rect width="101.227" height="18.673" x="351.833" y="597.457" stroke-linejoin="round" stroke-width="1.04"/><g><path stroke-width=".99" marker-end="url(#o)" d="m327.52933 606.82438h22.50905"/><path stroke-linejoin="round" stroke-width=".983" marker-end="url(#b)" d="m209.29773 574.83146v32.19643h23.23275"/><path stroke-width="1" d="m209.30647 606.99245v23.61232"/></g></g><text style="word-spacing:0;letter-spacing:0" x="203.346" y="643.295" fill="#000" font-family="sans-serif" font-size="12.5" line-height="125%" xml:space="preserve"><tspan x="203.346" y="643.295">...</tspan></text><path fill="none" stroke="#000" stroke-width="1.308" marker-end="url(#n)" d="m453.47727 575.36205h42.37241"/><path fill="none" stroke="#000" stroke-width="1" d="m467.2406 575.48832v54.67451"/><text style="word-spacing:0;letter-spacing:0" x="461.281" y="643.295" fill="#000" font-family="sans-serif" font-size="12.5" line-height="125%" xml:space="preserve"><tspan x="461.281" y="643.295">...</tspan></text><path fill="none" stroke="#000" stroke-width="1" d="m453.17857 606.80575h13.92857"/><text style="word-spacing:0;letter-spacing:0" x="501.51" y="578.787" fill="#000" font-family="sans-serif" font-size="12.5" line-height="125%" xml:space="preserve"><tspan x="501.51" y="578.787">Health Manager</tspan></text><rect width="107.55" height="20.172" x="498.281" y="565.253" fill="none" stroke="#000" stroke-linejoin="round" stroke-width="1.031"/><text style="word-spacing:0;letter-spacing:0" x="125.692" y="699.466" fill="#000" font-family="sans-serif" font-size="12.5" line-height="125%" xml:space="preserve"><tspan x="125.692" y="699.466">Peer Poller</tspan></text><rect width="80.812" height="20.203" x="118.962" y="684.704" fill="none" stroke="#000" stroke-linejoin="round"/><text style="word-spacing:0;letter-spacing:0" x="239.146" y="699.466" fill="#000" font-family="sans-serif" font-size="12.5" line-height="125%" xml:space="preserve"><tspan x="239.146" y="699.466">Peer Fetcher</tspan></text><rect width="90.409" height="19.193" x="233.746" y="685.209" fill="none" stroke="#000" stroke-linejoin="round"/><text style="word-spacing:0;letter-spacing:0" x="357.495" y="699.466" fill="#000" font-family="sans-serif" font-size="12.5" line-height="125%" xml:space="preserve"><tspan x="357.495" y="699.466">Peer Handler</tspan></text><rect width="93.439" height="18.688" x="351.812" y="685.462" fill="none" stroke="#000" stroke-linejoin="round"/><path fill="none" stroke="#000" stroke-width="1.168" marker-end="url(#c)" d="m199.75767 694.82632h31.33815"/><path fill="none" stroke="#000" stroke-width="1.057" marker-end="url(#a)" d="m324.13648 694.82438h25.68822"/><text style="word-spacing:0;letter-spacing:0" x="239.146" y="731.466" fill="#000" font-family="sans-serif" font-size="12.5" line-height="125%" xml:space="preserve"><tspan x="239.146" y="731.466">Peer Fetcher</tspan></text><rect width="90.409" height="19.193" x="233.746" y="717.209" fill="none" stroke="#000" stroke-linejoin="round"/><text style="word-spacing:0;letter-spacing:0" x="357.495" y="731.466" fill="#000" font-family="sans-serif" font-size="12.5" line-height="125%" xml:space="preserve"><tspan x="357.495" y="731.466">Peer Handler</tspan></text><rect width="93.439" height="18.688" x="351.812" y="717.462" fill="none" stroke="#000" stroke-linejoin="round"/><g fill="none" stroke="#000"><path stroke-width="1.057" marker-end="url(#a)" d="m324.13648 726.82438h25.68822"/><path stroke-linejoin="round" stroke-width=".983" marker-end="url(#b)" d="m209.29773 694.83146v32.19643h23.23275"/><path stroke-width="1" d="m209.30647 726.99245v23.61232"/></g><text style="word-spacing:0;letter-spacing:0" x="203.346" y="763.295" fill="#000" font-family="sans-serif" font-size="12.5" line-height="125%" xml:space="preserve"><tspan x="203.346" y="763.295">...</tspan></text><path fill="none" stroke="#000" stroke-width="1.308" marker-end="url(#d)" d="m445.47727 695.36205h42.37241"/><path fill="none" stroke="#000" stroke-width="1" d="m459.2406 695.48832v54.67451"/><text style="word-spacing:0;letter-spacing:0" x="453.281" y="763.295" fill="#000" font-family="sans-serif" font-size="12.5" line-height="125%" xml:space="preserve"><tspan x="453.281" y="763.295">...</tspan></text><path fill="none" stroke="#000" stroke-width="1" d="m445.17857 726.80575h13.92857"/><text style="word-spacing:0;letter-spacing:0" x="496.941" y="698.595" fill="#000" font-family="sans-serif" font-size="12.5" line-height="125%" xml:space="preserve"><tspan x="496.941" y="698.595">Peer Manager</tspan></text><rect width="101.015" height="20.203" x="490.266" y="685.237" fill="none" stroke="#000" stroke-linejoin="round"/><path fill="none" stroke="#000" stroke-linejoin="round" stroke-width="1" marker-end="url(#m)" d="m507.5 291.29077h27.14286v92.50001h-480.714288v190.35714h62.857138"/><path fill="none" stroke="#000" stroke-linejoin="round" stroke-width="1" marker-end="url(#l)" d="m496.99505 328.58791h13.63706v34.34518h-490.429059v331.83511h97.459419"/><g transform="translate(-20,-18)"><text style="word-spacing:0;letter-spacing:0" x="756.678" y="460.393" fill="#000" font-family="sans-serif" font-size="20" line-height="125%" xml:space="preserve"><tspan x="756.678" y="460.393">Shared Data</tspan></text><text style="word-spacing:0;letter-spacing:0" x="756.662" y="483.466" fill="#000" font-family="sans-serif" font-size="12.5" line-height="125%" xml:space="preserve"><tspan x="756.662" y="483.466">events</tspan><tspan x="756.662" y="499.091">toData</tspan><tspan x="756.662" y="514.716">errorCount</tspan><tspan x="756.662" y="530.341">healthIteration</tspan><tspan x="756.662" y="545.966">fetchCount</tspan><tspan x="756.662" y="561.591">localStates</tspan><tspan x="756.662" y="577.216">toSession</tspan><tspan x="756.662" y="592.841">peerStates</tspan><tspan x="756.662" y="608.466">monitorConfig</tspan><tspan x="756.662" y="624.091">combinedStates</tspan><tspan x="756.662" y="639.716">statInfoHistory</tspan><tspan x="756.662" y="655.341">statResultHistory</tspan><tspan x="756.662" y="670.966">statMaxKbpses</tspan><tspan x="756.662" y="686.591">lastKbpsStats</tspan><tspan x="756.662" y="702.216">dsStats</tspan><tspan x="756.662" y="717.841">localCacheStats</tspan><tspan x="756.662" y="733.466">lastHealthDurations</tspan><tspan x="756.662" y="749.091">healthHistory</tspan></text><rect width="161.624" height="323.249" x="737.916" y="440.715" fill="none" stroke="#000" stroke-linejoin="round"/><rect width="162.335" height="26.974" x="737.561" y="440.36" fill="none" stroke="#000" stroke-linejoin="round" stroke-width=".99"/></g><g fill="none" stroke="#000" stroke-width="1"><g><path marker-end="url(#k)" d="m590.93924 456.3722h125.74369"/><path marker-end="url(#j)" d="m605.58645 575.5702h110.08632"/><path marker-end="url(#i)" d="m590.93924 695.27328h125.25892"/></g><path stroke-linejoin="round" marker-end="url(#h)" d="m740 74.50506h162.85714v162.14286h-96.42857v35.35714"/></g><g transform="translate(-.35714286 -32.357143)"><text style="word-spacing:0;letter-spacing:0" x="767.499" y="323.52" fill="#000" font-family="sans-serif" font-size="12.5" line-height="125%" xml:space="preserve"><tspan x="767.499" y="323.52">HTTP Server</tspan></text><rect width="86.705" height="23.134" x="763.254" y="307.402" fill="none" stroke="#000" stroke-linejoin="round" stroke-width="1.07"/></g><path fill="none" stroke="#000" stroke-width="1.003" marker-end="url(#g)" d="m806.26765 422.00506v-121.77599"/><g transform="translate(-10,-6.0651794)"><text style="word-spacing:0;letter-spacing:0" x="910.357" y="295.934" fill="#000" font-family="sans-serif" font-size="12.5" line-height="125%" xml:space="preserve"><tspan x="910.357" y="295.934">HTTP Request</tspan></text><rect width="100" height="25" x="904.214" y="280.177" fill="none" stroke="#000" stroke-linejoin="round" stroke-width=".99"/></g><path fill="none" stroke="#000" stroke-width="1" marker-end="url(#f)" d="m849.64286 286.62983h42.5"/><g><path fill="#bddbff" d="m1110.4531 405.29883a35.457748 34.207745 0 0 0 -34.7324 26.27734 23.571428 16.964285 0 0 0 -14.1094 -3.5 23.571428 16.964285 0 0 0 -23.5332 14.75781 42.857143 20.714285 0 0 0 -11.3457 4.07227 23.928572 16.964285 0 0 0 0.053 -0.61133v-0.0684a23.928572 16.964285 0 0 0 -23.7422 -17.07812 23.928572 16.964285 0 0 0 -24.11331 16.8164 23.928572 16.964285 0 0 0 23.69331 17.11133 23.928572 16.964285 0 0 0 12.0547 -2.23828 42.857143 20.714285 0 0 0 -0.033 0.27149 42.857143 20.714285 0 0 0 42.4375 20.89453 42.857143 20.714285 0 0 0 38.5586 -11.32032 35.457748 34.207745 0 0 0 14.1914 3.02735 35.457748 34.207745 0 0 0 30.8418 -16.8125 10.535714 7.8571429 0 0 0 1.545 0.10547 10.535714 7.8571429 0 0 0 10.6386 -7.77149v-0.0312a10.535714 7.8571429 0 0 0 -7.3359 -7.53906 35.457748 34.207745 0 0 0 0.1133 -1.78906v-0.13867a35.457748 34.207745 0 0 0 -35.1817 -34.43555z" clip-path="url(#aa)" transform="translate(71.071429,-135)"/><path fill="none" stroke="#000" stroke-linejoin="round" stroke-width=".99" d="m1125.6855 353.07812a42.5 44.107143 0 0 0 -42.8261 43.72071 42.5 44.107143 0 0 0 0.055 2.19336 50.892857 36.964287 0 0 0 -0.8457 -0.0977 28.392857 22.5 0 0 0 0.072 -0.93359v-0.0899a28.392857 22.5 0 0 0 -28.1738 -22.65039 28.392857 22.5 0 0 0 -28.3399 19.54297 34.107143 30.178572 0 0 0 -13.043 -2.40039 34.107143 30.178572 0 0 0 -34.37106 29.91406 34.107143 30.178572 0 0 0 33.77346 30.44141 34.107143 30.178572 0 0 0 15.5254 -3.16016 50.892857 36.964287 0 0 0 46.4551 22.80274 50.892857 36.964287 0 0 0 43.4707 -17.24805 33.75 15.892858 0 0 0 18.125 2.60547 33.75 15.892858 0 0 0 34.0761 -15.7207v-0.0645a33.75 15.892858 0 0 0 -14.625 -13.19726 42.5 44.107143 0 0 0 12.8379 -31.07813v-0.17773a42.5 44.107143 0 0 0 -42.17 -44.40235z" transform="translate(71.071429,-135)"/></g><path fill="none" stroke="#000" stroke-width="1" marker-end="url(#e)" d="m993.92857 286.62983h50.00003"/></g></svg>