<svg xmlns="http://www.w3.org/2000/svg" width="504.874" height="84.363" version="1.1" viewBox="0 0 473.319 79.091"><defs><marker id="d" orient="auto" overflow="visible" refX="0" refY="0"><path fill-rule="evenodd" stroke="#000" stroke-linejoin="round" stroke-width=".625" d="m8.7185878 4.0337352-10.9258773-4.01772194 10.9258779-4.01772106c-1.7454984 2.3720609-1.7354408 5.6174519-6e-7 8.035443z" transform="matrix(-1.1,0,0,-1.1,-1.1,0)"/></marker><marker id="c" orient="auto" overflow="visible" refX="0" refY="0"><path fill-rule="evenodd" stroke="#000" stroke-linejoin="round" stroke-width=".625" d="m8.7185878 4.0337352-10.9258773-4.01772194 10.9258779-4.01772106c-1.7454984 2.3720609-1.7354408 5.6174519-6e-7 8.035443z" transform="matrix(-1.1,0,0,-1.1,-1.1,0)"/></marker></defs><g><g transform="translate(648.08812,-69.959775) translate(-771.37082,-375.19147)"><text style="word-spacing:0;letter-spacing:0" x="131.825" y="460.413" fill="#000" font-family="sans-serif" font-size="12.5" line-height="125%" xml:space="preserve"><tspan x="131.825" y="460.413">Stat Poller</tspan></text><rect width="80.812" height="20.203" x="123.783" y="445.651" fill="none" stroke="#000" stroke-linejoin="round"/></g><g transform="translate(648.08812,-69.959775) translate(-765.13949,-379.85152)"><text style="word-spacing:0;letter-spacing:0" x="239.048" y="465.073" fill="#000" font-family="sans-serif" font-size="12.5" line-height="125%" xml:space="preserve"><tspan x="239.048" y="465.073">Stat Fetcher</tspan></text><rect width="90.409" height="19.193" x="232.335" y="450.816" fill="none" stroke="#000" stroke-linejoin="round"/></g><g transform="translate(648.08812,-69.959775) translate(-746.55007,-377.77778)"><text style="word-spacing:0;letter-spacing:0" x="338.807" y="462.999" fill="#000" font-family="sans-serif" font-size="12.5" line-height="125%" xml:space="preserve"><tspan x="338.807" y="462.999">Stat Handler</tspan></text><rect width="93.439" height="18.688" x="331.812" y="448.995" fill="none" stroke="#000" stroke-linejoin="round"/></g><path fill="none" stroke="#000" stroke-width="1.168" d="m-566.79241 80.581875h31.33815" transform="translate(648.08812,-69.959775)"/><path fill="none" stroke="#000" stroke-width="1.057" d="m-442.4136 80.579935h25.68822" transform="translate(648.08812,-69.959775)"/><g transform="translate(648.08812,-69.959775) translate(-765.13949,-347.85152)"><text style="word-spacing:0;letter-spacing:0" x="239.048" y="465.073" fill="#000" font-family="sans-serif" font-size="12.5" line-height="125%" xml:space="preserve"><tspan x="239.048" y="465.073">Stat Fetcher</tspan></text><rect width="90.409" height="19.193" x="232.335" y="450.816" fill="none" stroke="#000" stroke-linejoin="round"/></g><g transform="translate(648.08812,-69.959775) translate(-746.55007,-345.77778)"><text style="word-spacing:0;letter-spacing:0" x="338.807" y="462.999" fill="#000" font-family="sans-serif" font-size="12.5" line-height="125%" xml:space="preserve"><tspan x="338.807" y="462.999">Stat Handler</tspan></text><rect width="93.439" height="18.688" x="331.812" y="448.995" fill="none" stroke="#000" stroke-linejoin="round"/></g><g fill="none" stroke="#000"><path stroke-width="1.057" marker-end="url(#d)" d="m324.13648 486.82438h25.68822" transform="translate(648.08812,-69.959775) translate(-766.55007,-374.24445)"/><path stroke-linejoin="round" stroke-width=".983" marker-end="url(#c)" d="m209.29773 454.83146v32.19643h23.23275" transform="translate(648.08812,-69.959775) translate(-766.55007,-374.24445)"/><path stroke-width="1" d="m209.30647 486.99245v23.61232" transform="translate(648.08812,-69.959775) translate(-766.55007,-374.24445)"/></g><text style="word-spacing:0;letter-spacing:0" x="-563.204" y="149.05" fill="#000" font-family="sans-serif" font-size="12.5" line-height="125%" transform="translate(648.08812,-69.959775)" xml:space="preserve"><tspan x="-563.204" y="149.05">...</tspan></text><path fill="none" stroke="#000" stroke-width="1.308" d="m-321.07281 81.117605h42.37241" transform="translate(648.08812,-69.959775)"/><path fill="none" stroke="#000" stroke-width="1" d="m-307.30948 81.243875v54.674505" transform="translate(648.08812,-69.959775)"/><text style="word-spacing:0;letter-spacing:0" x="-313.27" y="149.05" fill="#000" font-family="sans-serif" font-size="12.5" line-height="125%" transform="translate(648.08812,-69.959775)" xml:space="preserve"><tspan x="-313.27" y="149.05">...</tspan></text><path fill="none" stroke="#000" stroke-width="1" d="m-321.37151 112.5613h13.92857" transform="translate(648.08812,-69.959775)"/><g transform="translate(648.08812,-69.959775) translate(-777.91873,-382.54561)"><text style="word-spacing:0;letter-spacing:0" x="509.622" y="466.979" fill="#000" font-family="sans-serif" font-size="12.5" line-height="125%" xml:space="preserve"><tspan x="509.622" y="466.979">Stat Manager</tspan></text><rect width="101.015" height="20.203" x="501.634" y="453.539" fill="none" stroke="#000" stroke-linejoin="round"/></g></g></svg>